  <svg
        width="1440"
        height="857"
        viewBox="0 0 1440 857"
        fill="none"
        xmlns="http://www.w3.org/2000/svg"
      >
        <path
          d="M148.187 791.396L233.333 842.533L146.813 1031H161.92L221.523 901.231L245.281 849.544L460.483 978.625C460.483 978.625 460.62 978.625 460.62 978.763L547.827 1031H574.469L469.272 967.903L348.144 705.479L620.339 448.416L671.427 1031H685.16L632.836 436.457L858.337 223.521L930.025 370.61L814.94 705.754C814.94 705.754 814.94 705.754 814.94 705.891L703.013 1031H717.433L820.571 730.635L907.64 1031H921.923L830.321 714.277L1107.19 695.994L1057.06 802.943C1057.06 803.08 1056.92 803.08 1056.92 803.218L950.076 1031H965.183L1064.61 818.751L1234.77 1031H1252.35L1249.87 1027.98L1538 759.366V740.67L1241.36 1017.25L1071.07 805.005L1122.57 695.031L1538 667.676V653.929L1436.37 660.665L1538 539.007V517.699L1417.56 662.039L1255.92 672.762L1343.81 405.939L1538 486.769V471.923L1310.99 377.346L1067.77 276.033L995.396 245.928L1431.7 0H1403.83L992.1 231.769L1071.75 0H1057.33L936.343 352.327L866.44 209.224L764.539 0H749.295L851.883 210.599L621.025 428.759C621.025 428.759 621.025 428.759 620.888 428.896L341.964 692.42L317.656 639.77L564.307 243.179L715.648 0H699.58L310.927 624.923L166.177 311.499L115.913 202.488L371.765 103.512C371.765 103.512 371.903 103.512 371.903 103.375L639.153 0H580.1L579.276 8.52293L375.336 87.4288L368.607 0H354.873L361.191 81.1053L266.568 0H245.556L356.109 94.852L110.145 190.116L68.5333 99.9383L132.805 0H116.463L61.6667 85.2293L22.252 0H7.14534L54.2507 102.138C54.2507 102.138 54.2507 102.275 54.388 102.275L100.257 201.664L151.208 312.049L-110 498.042V514.813L157.113 324.696L219.463 459.551L147.225 774.762L-39.2733 663.002C-39.4107 663.002 -39.4107 662.864 -39.548 662.864L-110 620.662V636.608L-49.5733 672.899L-36.8013 1031H-23.068L-35.428 681.147L148.187 791.396ZM1331.18 400.303L1245.21 661.215L1078.48 295.141L1331.18 400.303ZM943.759 372.397L983.86 255.688L1022.18 271.634L1059.81 287.305L1235.87 673.724L1117.76 681.56C1117.62 681.56 1117.49 681.56 1117.49 681.56L831.008 700.393L943.759 372.397ZM228.801 480.034L303.648 642.244L333.449 706.716C333.449 706.854 333.587 706.854 333.587 706.991L448.397 955.393L245.693 833.735L159.585 782.185L228.801 480.034Z"
          fill="white"
        />
      </svg>